<svg id="Capa_1" enable-background="new 0 0 512 512" height="512" viewBox="0 0 512 512" width="512" xmlns="http://www.w3.org/2000/svg"><g><g><path d="m479.049 511.999h-446.103c-11.845 0-21.447-9.602-21.447-21.447v-469.103c0-11.845 9.602-21.447 21.447-21.447h446.103c11.845 0 21.447 9.602 21.447 21.447v469.103c0 11.844-9.602 21.447-21.447 21.447z" fill="#cd7cbb"/><path d="m500.501 21.453v469.094c0 11.847-9.606 21.453-21.453 21.453h-27.144c11.847 0 21.443-9.606 21.443-21.453v-469.094c0-11.847-9.596-21.453-21.443-21.453h27.144c11.848 0 21.453 9.606 21.453 21.453z" fill="#c365af"/><path d="m434.29 465.134h-356.585c-11.845 0-21.447-9.602-21.447-21.447v-375.374c0-11.845 9.602-21.447 21.447-21.447h356.585c11.845 0 21.447 9.602 21.447 21.447v375.374c0 11.845-9.602 21.447-21.447 21.447z" fill="#722d65"/><path d="m455.737 68.313v375.374c0 11.851-9.607 21.448-21.448 21.448h-27.152c11.841 0 21.448-9.596 21.448-21.448v-375.374c0-11.851-9.607-21.448-21.448-21.448h27.152c11.841.001 21.448 9.597 21.448 21.448z" fill="#63235a"/></g><g><path d="m390.388 225.708c-5.51-9.989-18.076-13.62-28.066-8.109-1.307.721-8.977 5.017-17.328 10.987-3.576-6.16-10.227-10.313-17.862-10.313-11.409 0-20.658 9.249-20.658 20.658v117.368c0 11.409 9.249 20.658 20.658 20.658s20.658-9.249 20.658-20.658v-69.755c.133-.663 1.425-5.579 12.02-16.731 5.244-5.519 16.575-12.772 22.486-16.046v-.001c9.976-5.517 13.6-18.074 8.092-28.058z" fill="#cd7cbb"/></g><path d="m392.968 235.673c0 7.271-3.853 14.326-10.67 18.096-5.918 3.274-17.249 10.525-22.486 16.041-10.597 11.155-11.888 16.071-12.023 16.733v69.248c0 11.573-9.471 21.378-21.042 21.167-3.204-.058-6.23-.846-8.911-2.207 6.734-3.398 11.362-10.381 11.362-18.447l-.588-71.767c-.071-8.617 3.042-16.947 8.739-23.412.959-1.089 2.023-2.252 3.201-3.492 5.247-5.516 16.578-12.777 22.486-16.051 6.817-3.77 10.67-10.825 10.67-18.096 0-2.851-.589-5.722-1.818-8.449 7.416-.145 14.667 3.718 18.499 10.669 1.744 3.17 2.581 6.589 2.581 9.967z" fill="#c365af"/><g><path d="m250.539 157.481c-14.86-14.469-34.391-22.437-54.994-22.437 0 0-55.713 0-55.855 0-5.615 0-10.681 2.125-14.631 6.074-3.982 3.996-6.027 8.934-6.027 14.583v200.598c0 11.409 9.249 20.658 20.658 20.658s20.658-9.249 20.658-20.658v-66.589c12.292-.065 27.143-.134 35.197-.134 20.603 0 40.134-7.969 54.994-22.437 15.078-14.681 23.381-34.153 23.381-54.829 0-20.677-8.304-40.149-23.381-54.829zm-54.994 90.78c-8.021 0-22.674.068-34.924.132-.065-12.629-.134-27.885-.134-36.083 0-6.927-.04-22.771-.078-35.951h35.136c20.088 0 37.06 16.464 37.06 35.951s-16.972 35.951-37.06 35.951z" fill="#cd7cbb"/></g><path d="m250.543 157.484c-14.863-14.471-34.395-22.445-55.001-22.445h-18.592c20.606 0 40.138 7.974 55.001 22.445 26.38 25.688 26.308 68.418 0 94.044-14.863 14.46-34.395 19.277-55.001 19.277-6.703 0-18.106.051-28.828.103-3.522.01-6.363 2.882-6.363 6.404v78.991c0 8.067-4.627 15.049-11.372 18.437 2.799 1.426 5.96 2.221 9.306 2.221 11.403 0 20.658-9.255 20.658-20.658v-66.59c12.291-.072 27.134-.134 35.19-.134 20.606 0 40.138-7.974 55.001-22.445 15.07-14.677 23.374-34.147 23.374-54.825s-8.303-40.148-23.373-54.825z" fill="#c365af"/></g></svg>