<svg height="512" viewBox="0 0 50 60" width="512" xmlns="http://www.w3.org/2000/svg">
    <g fill="#fff" fill-rule="nonzero">
        <path d="M9 60h36a5.006 5.006 0 005-5V9a5 5 0 00-4.092-4.908A5 5 0 0041 0H14a1 1 0 00-.707.293l-13 13A1 1 0 000 14v37a5 5 0 004.092 4.908A5 5 0 009 60zM48 9v46a3 3 0 01-3 3H9a3 3 0 01-2.816-2H41a5.006 5.006 0 005-5V6.184A3 3 0 0148 9zM13 3.414V10a3 3 0 01-3 3H3.414zM2 51V15h8a5.006 5.006 0 005-5V2h26a3 3 0 013 3v46a3 3 0 01-3 3H5a3 3 0 01-3-3z"/>
        <path d="M29 6h6a1 1 0 000-2h-6a1 1 0 000 2zM39 6h2a1 1 0 000-2h-2a1 1 0 000 2zM6 51h1a1 1 0 000-2H6a1 1 0 000 2zM40 49h-9a1 1 0 000 2h9a1 1 0 000-2zM26 49H11a1 1 0 000 2h15a1 1 0 000-2zM11 37h4v4a5.006 5.006 0 005 5h6a5.006 5.006 0 005-5v-4h4a5.006 5.006 0 005-5v-6a5.006 5.006 0 00-5-5h-4v-4a5.006 5.006 0 00-5-5h-6a5.006 5.006 0 00-5 5v4h-4a5.006 5.006 0 00-5 5v6a5.006 5.006 0 005 5zm24-14a3 3 0 013 3v6a3 3 0 01-3 3H23a1 1 0 000 2h6v4a3 3 0 01-3 3h-6a3 3 0 01-3-3v-8a3 3 0 013-3h6a5.006 5.006 0 005-5v-2zM8 26a3 3 0 013-3h12a1 1 0 000-2h-6v-4a3 3 0 013-3h6a3 3 0 013 3v8a3 3 0 01-3 3h-6a5.006 5.006 0 00-5 5v2h-4a3 3 0 01-3-3z"/>
        <circle cx="21" cy="18" r="1"/>
        <circle cx="25" cy="40" r="1"/>
    </g>
</svg>
